<svg width="22" height="29" viewBox="0 0 22 29" fill="none" xmlns="http://www.w3.org/2000/svg">
<path fill-rule="evenodd" clip-rule="evenodd" d="M3.00004 0.75H16.3334L21.6667 6.25V25.5C21.6667 26.2293 21.3858 26.9288 20.8857 27.4445C20.3856 27.9603 19.7073 28.25 19 28.25H3.00004C2.2928 28.25 1.61452 27.9603 1.11442 27.4445C0.614325 26.9288 0.333374 26.2293 0.333374 25.5V3.5C0.333374 2.77065 0.614325 2.07118 1.11442 1.55546C1.61452 1.03973 2.2928 0.75 3.00004 0.75ZM15.2294 3.5H3.00004V25.5H19V7.3885H15.2294V3.5ZM15 17.3669V13.125H9.66671V20.6875C9.66648 21.1253 9.5312 21.5516 9.28042 21.9048C9.02964 22.2581 8.67638 22.5198 8.27177 22.6523C7.86715 22.7847 7.43217 22.7809 7.02977 22.6415C6.62736 22.5021 6.27841 22.2343 6.03341 21.8768C5.78841 21.5193 5.66008 21.0906 5.66697 20.6529C5.67387 20.2152 5.81564 19.7911 6.07177 19.442C6.3279 19.0929 6.6851 18.8369 7.09169 18.711C7.49827 18.5851 7.93314 18.596 8.33337 18.7419V11.75C8.33337 11.3853 8.47385 11.0356 8.7239 10.7777C8.97395 10.5199 9.31309 10.375 9.66671 10.375H15C15.3537 10.375 15.6928 10.5199 15.9429 10.7777C16.1929 11.0356 16.3334 11.3853 16.3334 11.75V19.3125C16.3332 19.7503 16.1979 20.1766 15.9471 20.5298C15.6963 20.8831 15.3431 21.1448 14.9384 21.2773C14.5338 21.4097 14.0988 21.4059 13.6964 21.2665C13.294 21.1271 12.9451 20.8593 12.7001 20.5018C12.4551 20.1443 12.3267 19.7156 12.3336 19.2779C12.3405 18.8402 12.4823 18.4161 12.7384 18.067C12.9946 17.7179 13.3518 17.4619 13.7584 17.336C14.1649 17.2101 14.5998 17.221 15 17.3669Z" fill="#001951"/>
</svg>
