<svg width="35" height="35" viewBox="0 0 35 35" fill="none" xmlns="http://www.w3.org/2000/svg">
<path d="M21.875 3.64648V5.83398C21.875 7.89607 21.875 8.92711 22.5167 9.56732C23.1554 10.209 24.1865 10.209 26.25 10.209H28.4375" stroke="#001951" stroke-width="1.5" stroke-linecap="round" stroke-linejoin="round"/>
<path d="M11.6667 16.042H23.3334M11.6667 20.417H23.3334M11.6667 24.792H17.748M5.83337 23.3337V11.667C5.83337 7.54283 5.83337 5.47928 7.11525 4.19887C8.39567 2.91699 10.4592 2.91699 14.5834 2.91699H20.6675C21.2625 2.91699 21.5615 2.91699 21.8298 3.02783C22.0967 3.13866 22.3082 3.34866 22.7296 3.77158L28.3121 9.35408C28.735 9.77699 28.945 9.98699 29.0559 10.2553C29.1667 10.5222 29.1667 10.8212 29.1667 11.4162V23.3337C29.1667 27.4578 29.1667 29.5214 27.8848 30.8018C26.6044 32.0837 24.5409 32.0837 20.4167 32.0837H14.5834C10.4592 32.0837 8.39567 32.0837 7.11525 30.8018C5.83337 29.5214 5.83337 27.4578 5.83337 23.3337Z" stroke="#001951" stroke-width="1.5" stroke-linecap="round" stroke-linejoin="round"/>
</svg>
