<svg width="18" height="17" viewBox="0 0 18 17" fill="none" xmlns="http://www.w3.org/2000/svg">
<path d="M4.68804 5.9211C4.56741 5.7935 4.49964 5.62045 4.49964 5.44C4.49964 5.25955 4.56741 5.0865 4.68804 4.9589C4.80866 4.8313 4.97227 4.75962 5.14286 4.75962C5.31345 4.75962 5.47705 4.8313 5.59768 4.9589L8.35714 7.87865V0.68C8.35714 0.499653 8.42487 0.326692 8.54543 0.199167C8.66599 0.0716426 8.8295 0 9 0C9.1705 0 9.33401 0.0716426 9.45457 0.199167C9.57513 0.326692 9.64286 0.499653 9.64286 0.68V7.87865L12.4023 4.9589C12.5229 4.8313 12.6866 4.75962 12.8571 4.75962C13.0277 4.75962 13.1913 4.8313 13.312 4.9589C13.4326 5.0865 13.5004 5.25955 13.5004 5.44C13.5004 5.62045 13.4326 5.7935 13.312 5.9211L9.45482 10.0011C9.39512 10.0643 9.32422 10.1145 9.24618 10.1487C9.16813 10.1829 9.08448 10.2005 9 10.2005C8.91552 10.2005 8.83187 10.1829 8.75382 10.1487C8.67578 10.1145 8.60488 10.0643 8.54518 10.0011L4.68804 5.9211ZM18 10.2V15.64C18 16.0007 17.8645 16.3466 17.6234 16.6017C17.3823 16.8567 17.0553 17 16.7143 17H1.28571C0.944722 17 0.617695 16.8567 0.376577 16.6017C0.135459 16.3466 0 16.0007 0 15.64V10.2C0 9.83931 0.135459 9.49338 0.376577 9.23834C0.617695 8.98329 0.944722 8.84 1.28571 8.84H5.49643C5.53865 8.83996 5.58047 8.84873 5.61949 8.86579C5.65851 8.88286 5.69397 8.90789 5.72384 8.93945L7.63393 10.965C7.8131 11.1552 8.026 11.3061 8.26042 11.409C8.49484 11.512 8.74617 11.565 9 11.565C9.25383 11.565 9.50516 11.512 9.73958 11.409C9.974 11.3061 10.1869 11.1552 10.3661 10.965L12.2786 8.942C12.3379 8.87794 12.4188 8.84128 12.5036 8.84H16.7143C17.0553 8.84 17.3823 8.98329 17.6234 9.23834C17.8645 9.49338 18 9.83931 18 10.2ZM14.7857 12.92C14.7857 12.7183 14.7292 12.5211 14.6232 12.3533C14.5172 12.1856 14.3666 12.0548 14.1904 11.9776C14.0142 11.9004 13.8204 11.8802 13.6333 11.9196C13.4463 11.959 13.2744 12.0561 13.1396 12.1988C13.0047 12.3414 12.9129 12.5231 12.8757 12.721C12.8385 12.9189 12.8576 13.124 12.9305 13.3103C13.0035 13.4967 13.1271 13.656 13.2857 13.7681C13.4443 13.8802 13.6307 13.94 13.8214 13.94C14.0772 13.94 14.3224 13.8325 14.5033 13.6412C14.6841 13.45 14.7857 13.1905 14.7857 12.92Z" fill="#001951"/>
</svg>
