<svg width="29" height="24" viewBox="0 0 29 24" fill="none" xmlns="http://www.w3.org/2000/svg">
<path d="M13.2321 19.1181C13.3632 19.2488 13.4672 19.404 13.5382 19.5749C13.6091 19.7459 13.6457 19.9291 13.6457 20.1142C13.6457 20.2993 13.6091 20.4826 13.5382 20.6535C13.4672 20.8244 13.3632 20.9797 13.2321 21.1103L12.6321 21.7103C11.9951 22.3496 11.2378 22.8563 10.4039 23.201C9.5699 23.5458 8.67588 23.7218 7.77347 23.7189C6.41449 23.7193 5.0859 23.3167 3.95581 22.5619C2.82572 21.8071 1.94489 20.734 1.42477 19.4785C0.904652 18.223 0.768608 16.8414 1.03385 15.5086C1.2991 14.1757 1.95371 12.9515 2.91488 11.9908L6.98714 7.91852C7.85332 7.05247 8.93523 6.43368 10.1209 6.1262C11.3065 5.81872 12.5528 5.83373 13.7307 6.16967C14.9086 6.50561 15.9753 7.15028 16.8203 8.03694C17.6654 8.92359 18.2581 10.02 18.5371 11.2127C18.5834 11.394 18.5929 11.5827 18.5652 11.7678C18.5376 11.9529 18.4732 12.1306 18.376 12.2905C18.2788 12.4504 18.1506 12.5893 17.9991 12.699C17.8475 12.8087 17.6755 12.8871 17.4933 12.9295C17.311 12.972 17.1221 12.9776 16.9376 12.9461C16.7532 12.9146 16.5769 12.8466 16.419 12.746C16.2612 12.6455 16.125 12.5145 16.0184 12.3607C15.9119 12.2068 15.8371 12.0333 15.7985 11.8502C15.6329 11.1461 15.2823 10.4991 14.7829 9.97596C14.2835 9.45281 13.6535 9.07254 12.9579 8.87446C12.2623 8.67637 11.5265 8.66765 10.8264 8.84921C10.1263 9.03077 9.48745 9.39602 8.97581 9.90719L4.90355 13.9795C4.3359 14.5466 3.94921 15.2694 3.79236 16.0564C3.63551 16.8434 3.71556 17.6592 4.02239 18.4006C4.32921 19.1421 4.84902 19.7759 5.51609 20.222C6.18316 20.668 6.96751 20.9062 7.76996 20.9064C8.30314 20.908 8.83133 20.8038 9.32396 20.5998C9.81659 20.3958 10.2639 20.0961 10.6399 19.7181L11.2387 19.1181C11.3694 18.9869 11.5247 18.8827 11.6957 18.8116C11.8668 18.7405 12.0502 18.7039 12.2354 18.7039C12.4206 18.7039 12.604 18.7405 12.775 18.8116C12.9461 18.8827 13.1014 18.9869 13.2321 19.1181ZM26.0817 2.29352C24.7928 1.00506 23.0449 0.28125 21.2225 0.28125C19.4 0.28125 17.6522 1.00506 16.3633 2.29352L15.7645 2.89235C15.5003 3.15653 15.3519 3.51483 15.3519 3.88844C15.3519 4.26205 15.5003 4.62035 15.7645 4.88454C16.0287 5.14872 16.387 5.29713 16.7606 5.29713C17.1342 5.29713 17.4925 5.14872 17.7567 4.88454L18.3567 4.28454C19.1181 3.52307 20.1509 3.09529 21.2278 3.09529C22.3046 3.09529 23.3374 3.52307 24.0989 4.28454C24.8603 5.046 25.2881 6.07876 25.2881 7.15563C25.2881 8.2325 24.8603 9.26526 24.0989 10.0267L20.0196 14.0931C19.6435 14.4711 19.1963 14.7708 18.7036 14.9748C18.211 15.1788 17.6828 15.283 17.1496 15.2814C16.235 15.2808 15.3474 14.9711 14.6307 14.4028C13.9141 13.8344 13.4105 13.0406 13.2016 12.1502C13.1171 11.7868 12.8917 11.472 12.575 11.2748C12.2583 11.0777 11.8762 11.0145 11.5129 11.099C11.1496 11.1835 10.8347 11.4089 10.6376 11.7256C10.4405 12.0423 10.3772 12.4243 10.4618 12.7877C10.8146 14.2957 11.6666 15.6404 12.8794 16.6035C14.0923 17.5667 15.595 18.0919 17.1438 18.0939H17.1496C18.0525 18.0964 18.9468 17.9198 19.781 17.5745C20.6152 17.2291 21.3726 16.7218 22.0094 16.0818L26.0817 12.0095C26.7197 11.3716 27.2259 10.6143 27.5712 9.78072C27.9165 8.94717 28.0942 8.05377 28.0942 7.15153C28.0942 6.24929 27.9165 5.35588 27.5712 4.52234C27.2259 3.68879 26.7197 2.93143 26.0817 2.29352Z" fill="#001951"/>
</svg>
