<svg width="13" height="17" viewBox="0 0 13 17" fill="none" xmlns="http://www.w3.org/2000/svg">
<path d="M13 8.5C13.0005 8.70893 12.949 8.91444 12.8507 9.09654C12.7523 9.27864 12.6104 9.43113 12.4386 9.53918L1.79636 16.3189C1.61694 16.4333 1.41144 16.4957 1.20108 16.4998C0.990724 16.5038 0.783143 16.4494 0.599773 16.3419C0.418149 16.2362 0.266852 16.082 0.161439 15.8951C0.0560266 15.7083 0.000303474 15.4956 0 15.2789V1.72109C0.000303474 1.5044 0.0560266 1.2917 0.161439 1.10487C0.266852 0.91804 0.418149 0.763819 0.599773 0.658069C0.783143 0.55065 0.990724 0.496154 1.20108 0.500211C1.41144 0.504268 1.61694 0.566729 1.79636 0.681145L12.4386 7.46082C12.6104 7.56887 12.7523 7.72136 12.8507 7.90346C12.949 8.08556 13.0005 8.29107 13 8.5Z" fill="#001951"/>
</svg>
