<svg width="89" height="104" viewBox="0 0 89 104" fill="none" xmlns="http://www.w3.org/2000/svg">
<path d="M80.5 0H8.5C6.37827 0 4.34344 0.842854 2.84315 2.34315C1.34285 3.84344 0.5 5.87827 0.5 8V96C0.5 98.1217 1.34285 100.157 2.84315 101.657C4.34344 103.157 6.37827 104 8.5 104H80.5C82.6217 104 84.6566 103.157 86.1569 101.657C87.6571 100.157 88.5 98.1217 88.5 96V8C88.5 5.87827 87.6571 3.84344 86.1569 2.34315C84.6566 0.842854 82.6217 0 80.5 0ZM44.5 68C45.6867 68 46.8467 68.3519 47.8334 69.0112C48.8201 69.6705 49.5891 70.6075 50.0433 71.7039C50.4974 72.8003 50.6162 74.0067 50.3847 75.1705C50.1532 76.3344 49.5818 77.4035 48.7426 78.2426C47.9035 79.0817 46.8344 79.6532 45.6705 79.8847C44.5067 80.1162 43.3003 79.9974 42.2039 79.5433C41.1075 79.0891 40.1705 78.3201 39.5112 77.3334C38.8519 76.3467 38.5 75.1867 38.5 74C38.5 72.4087 39.1321 70.8826 40.2574 69.7574C41.3826 68.6321 42.9087 68 44.5 68ZM40.5 56V28C40.5 26.9391 40.9214 25.9217 41.6716 25.1716C42.4217 24.4214 43.4391 24 44.5 24C45.5609 24 46.5783 24.4214 47.3284 25.1716C48.0786 25.9217 48.5 26.9391 48.5 28V56C48.5 57.0609 48.0786 58.0783 47.3284 58.8284C46.5783 59.5786 45.5609 60 44.5 60C43.4391 60 42.4217 59.5786 41.6716 58.8284C40.9214 58.0783 40.5 57.0609 40.5 56Z" fill="white"/>
</svg>
