<svg width="162" height="140" viewBox="0 0 162 140" fill="none" xmlns="http://www.w3.org/2000/svg">
<g clip-path="url(#clip0_1082_4634)">
<path d="M67.3872 121.626L69.1566 115.844C67.0277 113.493 64.359 111.699 61.3823 110.617C64.2906 115.452 61.4725 121.759 62.6468 127.282C63.0262 129.002 63.7865 130.614 64.8711 131.999C65.9558 133.384 67.3372 134.506 68.9128 135.282L71.5978 138.62C73.0054 136.153 73.8632 133.408 74.1119 130.575C74.3606 127.743 73.9945 124.89 73.0386 122.213C72.4876 120.717 71.751 119.296 70.8461 117.985C69.2506 119.867 67.3872 121.626 67.3872 121.626Z" fill="#F2F2F2"/>
<path d="M57.6581 122.365L56.6719 116.398C53.7215 115.246 50.5355 114.835 47.3906 115.199C52.1424 118.225 52.4232 125.131 55.929 129.549C57.0329 130.918 58.4298 132.021 60.0161 132.775C61.6024 133.529 63.3375 133.915 65.0928 133.905L68.9797 135.691C69.1428 132.853 68.6906 130.012 67.6544 127.366C66.6182 124.719 65.0225 122.33 62.9773 120.362C61.8191 119.269 60.5283 118.327 59.1355 117.558C58.544 119.957 57.6581 122.365 57.6581 122.365Z" fill="#F2F2F2"/>
<path d="M115.568 137.137L112.842 137.137L111.546 126.588L115.568 126.588L115.568 137.137Z" fill="#FFB6B6"/>
<path d="M116.263 139.788L107.475 139.787V139.676C107.475 138.765 107.836 137.893 108.477 137.249C109.118 136.605 109.988 136.244 110.896 136.244H110.896L112.501 135.021L115.496 136.244L116.263 136.244L116.263 139.788Z" fill="#2F2E41"/>
<path d="M159.594 127.161L157.735 129.162L149.161 122.921L151.904 119.969L159.594 127.161Z" fill="#FFB6B6"/>
<path d="M162 128.457L156.008 134.908L155.927 134.832C155.263 134.211 154.872 133.352 154.84 132.442C154.809 131.532 155.138 130.647 155.757 129.981L155.96 127.969L158.893 126.604L159.416 126.041L162 128.457Z" fill="#2F2E41"/>
<path d="M155.561 121.233L152.68 127.278L134.991 115.526L132.417 112.007L123.979 100.471L120.549 105.932L118.163 111.641C117.385 112.15 116.73 112.826 116.244 113.621C115.758 114.415 115.454 115.307 115.354 116.234L115.245 117.244L116.753 130.849L111.021 132.615L107.729 114.339L108.805 110.379L109.913 104.82L115.491 87.2539H130.419L138.98 105.541L139.606 109.267L142.034 112.063L155.561 121.233Z" fill="#2F2E41"/>
<path d="M124.539 58.5137L127.052 60.4337L130.082 61.3682C130.082 61.3682 131.335 79.052 132.464 80.1848C133.593 81.3176 132.575 81.348 132.801 82.8196C133.028 84.2911 133.58 87.3076 133.58 87.3076C125.96 91.3551 119.391 91.4637 114.114 86.7274C114.046 86.4344 114.081 86.1271 114.211 85.8563C114.341 85.5856 114.56 85.3677 114.831 85.2388C115.813 84.7159 113.926 82.2753 114.728 81.8672C115.531 81.4592 114.402 77.9193 114.402 77.9193L115.142 70.5335L114.557 69.3529L115.985 62.1288L118.463 61.2209L119.452 58.8282L124.539 58.5137Z" fill="#3F3D56"/>
<path d="M126.113 89.9436C126.102 89.6243 126.161 89.3063 126.285 89.0121C126.409 88.718 126.597 88.4548 126.833 88.2411C127.07 88.0274 127.351 87.8684 127.655 87.7753C127.96 87.6822 128.281 87.6572 128.597 87.7022L132.138 80.7949L134.111 84.3126L130.446 90.3326C130.335 90.8591 130.036 91.3266 129.605 91.6467C129.174 91.9667 128.641 92.117 128.107 92.0691C127.573 92.0211 127.075 91.7783 126.708 91.3865C126.34 90.9948 126.129 90.4814 126.113 89.9436Z" fill="#FFB6B6"/>
<path d="M132.077 88.2535L139.673 76.4402L139.648 76.3859C139.619 76.3236 137.899 72.5958 136.232 69.1815C135.976 68.6557 135.72 68.1373 135.472 67.6409C135.366 67.4266 135.26 67.2169 135.156 67.0116C134.456 65.6268 133.845 64.4822 133.48 63.9385C132.672 62.7092 131.47 61.7941 130.073 61.345L130.038 61.3359L130.004 61.35C129.321 61.6394 128.756 62.1539 128.403 62.8086C128.05 63.4633 127.93 64.2192 128.062 64.9516C128.721 68.4844 130.189 71.8151 132.351 74.6809L133.582 76.3096L129.303 85.6454L132.077 88.2535Z" fill="#3F3D56"/>
<path d="M105.957 42.9721C106.167 43.2131 106.321 43.4971 106.408 43.8043C106.496 44.1114 106.516 44.4342 106.466 44.7498C106.416 45.0654 106.298 45.3662 106.12 45.6311C105.942 45.8959 105.708 46.1183 105.435 46.2826L107.018 53.8861L103.278 52.4002L102.348 45.4075C102.103 44.9288 102.042 44.3766 102.176 43.8557C102.31 43.3347 102.63 42.8812 103.075 42.581C103.519 42.2808 104.059 42.1548 104.59 42.2269C105.121 42.2989 105.608 42.5641 105.957 42.9721Z" fill="#FFB6B6"/>
<path d="M102.385 48.0527L103.897 62.0294L103.951 62.0558C103.995 62.0776 105.911 63.0207 108.263 64.1439C108.66 64.3334 108.603 65.1541 109.018 65.3503C109.304 65.4854 110.058 64.9951 110.347 65.1306C112.918 66.337 115.517 67.5102 116.553 67.828C117.952 68.2727 119.46 68.224 120.827 67.6899L120.86 67.6748L120.878 67.6427C121.227 66.986 121.343 66.2294 121.206 65.4978C121.07 64.7661 120.689 64.103 120.126 63.6178C117.397 61.2898 114.167 59.63 110.689 58.7695L108.711 58.2823L106.176 48.326L102.385 48.0527Z" fill="#3F3D56"/>
<path d="M121.86 57.7214C124.605 57.7214 126.83 55.4884 126.83 52.7338C126.83 49.9792 124.605 47.7461 121.86 47.7461C119.115 47.7461 116.889 49.9792 116.889 52.7338C116.889 55.4884 119.115 57.7214 121.86 57.7214Z" fill="#FFB6B6"/>
<path d="M116.925 49.3905C117.334 48.1972 119.369 47.3695 122.667 47.2545C125.966 47.1394 126.803 51.0403 126.803 51.0403C129.005 52.8329 124.451 57.6321 124.231 57.4592L124.33 56.5576C124.494 55.064 125.191 53.8987 124.305 52.3422L123.453 52.352C122.354 52.5641 121.255 52.7762 120.156 52.9883L121.457 51.8385L121.42 51.7815C120.867 52.0709 120.264 52.2544 119.644 52.3228C118.945 52.3641 118.18 52.0847 117.845 51.4672C117.755 51.2975 117.701 51.1115 117.684 50.9202C116.741 51.2983 116.31 52.4652 116.31 52.4652C116.31 52.4652 116.516 50.5838 116.925 49.3905Z" fill="#2F2E41"/>
<path d="M20.0261 49.6902C19.9586 49.6043 19.886 49.5228 19.8086 49.4459C19.8275 49.4198 19.8464 49.3913 19.8653 49.3652L20.0261 49.6902Z" fill="#2F2E41"/>
<path d="M20.9927 69.7514C20.1797 71.2005 18.5559 72.0093 16.9463 72.4054C15.1384 72.8806 13.2346 72.8436 11.4463 72.2986C11.2194 72.2251 10.9925 72.1397 10.7727 72.0449C10.8784 71.7632 10.9622 71.4738 11.0233 71.1792C11.1055 70.7805 11.1467 70.3744 11.1462 69.9672C10.9671 70.3179 10.7351 70.6387 10.4584 70.9183C10.2449 71.1433 10.0025 71.3387 9.73747 71.4993C8.91552 70.9988 8.20381 70.3354 7.64573 69.5498C7.68117 69.462 7.71664 69.3743 7.74973 69.2865C7.92136 68.8282 8.05727 68.3572 8.15625 67.8777C8.29055 67.2294 8.35787 66.5689 8.35716 65.9068C8.06574 66.4773 7.68778 66.999 7.23682 67.4531C7.10162 67.5983 6.95799 67.7353 6.80667 67.8635C6.57233 67.1493 6.48174 66.3956 6.54017 65.646C6.5986 64.8964 6.80487 64.166 7.14701 63.4971C8.08298 61.761 9.89819 60.7293 11.5149 59.6074C13.1339 58.4856 14.753 56.9677 14.89 54.9968C14.9822 53.6662 14.3677 52.3333 14.6135 51.0241C14.7169 50.472 14.9693 49.959 15.3432 49.5409C15.717 49.1228 16.1981 48.8157 16.7339 48.653C17.2697 48.4903 17.8398 48.4783 18.3819 48.6183C18.9241 48.7583 19.4176 49.0449 19.8086 49.4469C18.8915 50.7513 17.9792 52.1008 17.6081 53.652C17.23 55.2316 17.5396 57.0839 18.7805 58.1298C19.2059 58.4903 19.7282 58.7465 20.0568 59.1971C20.494 59.7948 20.4964 60.5917 20.5673 61.3269C20.7091 62.7571 21.1747 64.1327 21.4253 65.5486C21.6782 66.9622 21.6924 68.4967 20.9927 69.7514Z" fill="#2F2E41"/>
<path d="M4.3252 128.566L6.48238 130.238L13.9376 122.685L10.7538 120.217L4.3252 128.566Z" fill="#A0616A"/>
<path d="M4.417 126.932L7.98417 129.371L6.8553 130.837L8.36715 135.598C8.44185 135.833 8.4397 136.086 8.36101 136.32C8.28233 136.553 8.13122 136.756 7.92977 136.897C7.72831 137.039 7.48705 137.112 7.2412 137.106C6.99535 137.1 6.75779 137.016 6.5632 136.865L2.50359 133.717L2.92048 131.725L1.53064 132.963L0 131.776L4.417 126.932Z" fill="#2F2E41"/>
<path d="M15.2695 53.9045C15.2692 54.7502 15.4758 55.5831 15.8712 56.33C16.2665 57.0769 16.8385 57.715 17.537 58.1883C18.2355 58.6616 19.0391 58.9556 19.8772 59.0445C20.7154 59.1334 21.5624 59.0145 22.3441 58.6982C23.1257 58.3819 23.8181 57.8779 24.3603 57.2304C24.9025 56.583 25.2781 55.8118 25.454 54.9847C25.6299 54.1576 25.6007 53.2998 25.3691 52.4866C25.1375 51.6734 24.7105 50.9298 24.1256 50.3208L24.1009 50.296C24.0597 50.2526 24.0185 50.2092 23.9753 50.1679L23.9745 50.1677L23.9738 50.1673L23.9734 50.1666L23.9732 50.1658C23.9197 50.1162 23.8661 50.0666 23.8105 50.0191C22.9043 49.2214 21.6307 48.3555 20.3311 48.3555C17.4868 48.3555 15.2695 51.0504 15.2695 53.9045Z" fill="#2F2E41"/>
<path d="M44.6174 51.2509C44.642 51.5264 44.6062 51.8041 44.5123 52.0642C44.4185 52.3244 44.2689 52.5607 44.0742 52.7566C43.8795 52.9525 43.6443 53.1032 43.3853 53.198C43.1263 53.2928 42.8497 53.3295 42.575 53.3054L29.825 64.8572L27.6309 61.3799L40.8536 51.1183C40.9245 50.6579 41.1611 50.2396 41.5188 49.9427C41.8765 49.6457 42.3302 49.4907 42.7942 49.507C43.2581 49.5234 43.6999 49.7099 44.036 50.0313C44.372 50.3527 44.5789 50.7866 44.6174 51.2509Z" fill="#A0616A"/>
<path d="M24.3757 68.344C24.3757 68.344 24.8501 69.2232 26.4706 67.8656C27.7679 66.7788 33.9832 62.0604 35.3221 60.1269C35.6279 60.2485 35.9652 60.2645 36.2811 60.1725C36.5969 60.0805 36.8732 59.8856 37.0665 59.6187L33.3978 56.3945C32.3002 56.5213 32.3237 57.2613 32.438 57.6814L29.6706 58.9396L22.5244 63.5223L24.0216 67.7146L24.3757 68.344Z" fill="#6C63FF"/>
<path d="M17.4526 76.4436L17.1854 77.7206L16.9585 82.431L26.9487 82.982L26.6385 75.7372L25.6701 74.1406L17.4526 76.4436Z" fill="#A0616A"/>
<path d="M21.6867 59.4327C24.0713 59.4327 26.0043 57.4929 26.0043 55.1001C26.0043 52.7073 24.0713 50.7676 21.6867 50.7676C19.3022 50.7676 17.3691 52.7073 17.3691 55.1001C17.3691 57.4929 19.3022 59.4327 21.6867 59.4327Z" fill="#A0616A"/>
<path d="M14.0212 71.0804L13.9946 67.4791C13.994 66.1832 14.431 64.9254 15.2343 63.9109C16.0377 62.8963 17.1599 62.1848 18.418 61.8925L18.4343 61.8887L19.288 60.7344L22.7566 61.0826L23.3924 62.3864L25.9058 63.8882L26.8735 67.0098C27.2932 67.2905 27.651 67.6549 27.9244 68.0802C28.1979 68.5055 28.3813 68.9827 28.4632 69.4822C28.7918 71.588 27.3224 73.6951 27.1476 73.9367L26.6973 76.4817L16.9007 78.2162L16.8212 78.2263L14.0212 71.0804Z" fill="#6C63FF"/>
<path d="M26.9702 54.3272C26.4666 54.6472 25.9441 54.9363 25.4055 55.1928C24.8589 55.4563 24.2872 55.6637 23.6991 55.8119C23.5308 55.4414 23.3248 55.0893 23.0845 54.7612C23.1464 55.15 23.148 55.546 23.0893 55.9352C22.1144 56.093 21.1159 56.0108 20.1797 55.6957L19.3667 54.3272L19.3052 55.8546C18.6316 55.9779 17.9603 56.0941 17.2867 56.2151C17.2465 56.2198 17.2064 56.2293 17.1685 56.2364C16.7502 54.3438 17.3434 52.259 18.6623 50.9972C19.3171 50.3773 20.134 49.9568 21.0177 49.7847C21.9015 49.6125 22.8157 49.6958 23.6542 50.0248C23.7605 50.0675 23.8692 50.1149 23.9732 50.1648L23.9734 50.1657L23.9739 50.1665L23.9747 50.167L23.9756 50.1671C24.037 50.198 24.089 50.2715 24.1576 50.2644C27.1073 49.9347 27.2019 52.2305 26.9702 54.3272Z" fill="#2F2E41"/>
<path d="M19.7876 122.979L21.9481 124.647L29.3882 117.079L26.1996 114.617L19.7876 122.979Z" fill="#A0616A"/>
<path d="M20.0718 121.496L23.6439 123.929L22.5179 125.397L24.0394 130.154C24.1145 130.389 24.1129 130.642 24.0347 130.876C23.9565 131.11 23.8058 131.313 23.6046 131.455C23.4034 131.597 23.1623 131.67 22.9165 131.665C22.6706 131.66 22.4329 131.576 22.238 131.425L18.172 128.286L18.5849 126.292L17.1976 127.533L15.6646 126.349L20.0718 121.496Z" fill="#2F2E41"/>
<path d="M12.7769 113.744L12.7768 113.715L13.8007 111.945L12.7551 109.64L12.7238 103.718L12.8933 102.829C13.1212 101.634 13.0549 100.4 12.7 99.2364L12.6809 95.6319C12.6442 94.729 14.0382 93.9348 13.7131 93.1821C10.6405 86.0668 16.8507 80.6389 16.8927 80.5953L17.0196 80.4629L17.7082 80.9862L18.3636 80.987L27.2076 82.6041L27.2715 82.7236C27.6194 83.3784 28.2907 85.6351 28.3305 86.6563C28.7713 87.1684 33.7921 92.9983 34.2384 93.4034C37.2544 96.1417 38.9812 100.674 39.7421 103.132C39.931 103.74 39.9691 104.384 39.853 105.01C39.7369 105.636 39.4701 106.223 39.0759 106.722L27.6581 119.271L24.5855 116.425L30.7636 105.128L30.318 103.982C29.5187 103.834 28.7953 103.412 28.2713 102.789L27.0202 101.299C26.6739 100.887 26.4538 100.384 26.3866 99.8497L25.6279 99.758L22.9104 96.895L21.025 114.028L20.5124 115.382L11.5859 125.912L7.8042 123.54L12.7769 113.744Z" fill="#2F2E41"/>
<path d="M11.4134 40.1743C11.2419 40.3909 11.1198 40.6427 11.0557 40.9118C10.9917 41.1809 10.9872 41.4608 11.0426 41.7319C11.0981 42.0029 11.212 42.2584 11.3765 42.4805C11.541 42.7025 11.752 42.8857 11.9947 43.0171L9.15625 51.4493L11.474 60.3853L15.2114 58.6899L12.9051 51.9497L14.6306 42.1389C14.8235 41.7152 14.8548 41.2352 14.7186 40.7899C14.5824 40.3445 14.2881 39.9648 13.8916 39.7226C13.495 39.4805 13.0237 39.3927 12.5669 39.4759C12.1102 39.5592 11.6997 39.8077 11.4134 40.1743Z" fill="#A0616A"/>
<path d="M14.8346 67.7491C14.8346 67.7491 13.9568 68.2221 13.3463 66.1943C12.8576 64.571 9.53153 55.7568 9.4716 53.403C9.14958 53.336 8.85894 53.1634 8.64547 52.9124C8.43199 52.6613 8.3078 52.3462 8.29248 52.0165L13.1232 51.3457C13.9709 52.0569 13.546 52.6622 13.2205 52.9501L14.8658 55.7467L18.3047 63.2965L15.4752 67.4185L14.8346 67.7491Z" fill="#6C63FF"/>
<path d="M17.2856 56.2144C17.7817 54.7132 18.6713 53.3736 19.8609 52.3362C21.0506 51.2987 22.4966 50.6017 24.0472 50.3181C24.0534 50.3161 24.074 50.3078 24.1007 50.2954C24.1172 50.2851 24.1378 50.2747 24.1584 50.2644C24.0966 50.2293 24.0369 50.1983 23.9751 50.1672L23.9743 50.1671L23.9736 50.1666L23.9732 50.166L23.9731 50.1652C23.9195 50.1156 23.866 50.066 23.8103 50.0184L23.6538 50.0246C23.6538 50.0246 18.1527 49.1504 17.2856 56.2144Z" fill="#FD6584"/>
<path d="M88.2696 104.495C88.87 103.589 88.5147 102.293 87.4759 101.599C86.4372 100.906 85.1084 101.078 84.508 101.983C83.9076 102.889 84.263 104.185 85.3017 104.879C86.3405 105.572 87.6693 105.4 88.2696 104.495Z" fill="#F2F2F2"/>
<path d="M76.0821 70.6959C76.6825 69.7903 76.3272 68.4941 75.2884 67.8006C74.2497 67.1071 72.9209 67.279 72.3205 68.1846C71.7201 69.0901 72.0755 70.3864 73.1142 71.0799C74.153 71.7734 75.4818 71.6014 76.0821 70.6959Z" fill="#F2F2F2"/>
<path d="M127.048 122.727C127.648 121.822 127.293 120.525 126.254 119.832C125.215 119.138 123.887 119.31 123.286 120.216C122.686 121.121 123.041 122.418 124.08 123.111C125.119 123.805 126.448 123.633 127.048 122.727Z" fill="#F2F2F2"/>
<path d="M24.0084 13.9947C24.6088 13.0892 24.2534 11.7929 23.2147 11.0994C22.1759 10.4059 20.8471 10.5779 20.2468 11.4834C19.6464 12.389 20.0017 13.6852 21.0405 14.3787C22.0792 15.0722 23.408 14.9003 24.0084 13.9947Z" fill="#F2F2F2"/>
<path d="M72.0934 3.32088C72.6938 2.41533 72.3384 1.11907 71.2996 0.42559C70.2609 -0.267889 68.9321 -0.095976 68.3317 0.809571C67.7313 1.71512 68.0867 3.0114 69.1255 3.70487C70.1642 4.39835 71.493 4.22643 72.0934 3.32088Z" fill="#F2F2F2"/>
<path d="M49.336 92.8678C49.9364 91.9622 49.5811 90.666 48.5423 89.9725C47.5036 89.279 46.1748 89.4509 45.5744 90.3565C44.974 91.262 45.3294 92.5583 46.3681 93.2518C47.4069 93.9452 48.7357 93.7733 49.336 92.8678Z" fill="#E6E6E6"/>
<path d="M148.525 140H4.42568C4.35583 140 4.28892 139.972 4.2396 139.922C4.19029 139.873 4.1626 139.806 4.1626 139.735C4.1626 139.665 4.19029 139.598 4.2396 139.549C4.28892 139.499 4.35583 139.471 4.42568 139.471H148.525C148.595 139.471 148.662 139.499 148.711 139.548C148.761 139.598 148.789 139.665 148.789 139.735C148.789 139.806 148.761 139.873 148.711 139.923C148.662 139.972 148.595 140 148.525 140Z" fill="#CCCCCC"/>
<path d="M31.2464 52.067C30.0342 52.0635 28.8659 51.6118 27.9647 50.7983C27.0636 49.9849 26.4927 48.8667 26.3614 47.6575L23.5483 21.4399C23.41 20.1382 23.792 18.8346 24.6104 17.8152C25.4288 16.7958 26.6168 16.1437 27.9137 16.0021L111.443 6.97708C112.741 6.83832 114.04 7.2216 115.056 8.04283C116.072 8.86406 116.721 10.0562 116.863 11.3576L119.676 37.575C119.814 38.8768 119.432 40.1804 118.614 41.1999C117.795 42.2194 116.607 42.8714 115.31 43.0131L31.7805 52.0381C31.6031 52.0573 31.4248 52.067 31.2464 52.067Z" fill="#E6E6E6"/>
<path d="M110.523 8.19532C110.366 8.19538 110.209 8.20386 110.053 8.22073L29.5354 16.9204C28.9724 16.9812 28.4269 17.1527 27.9299 17.4251C27.433 17.6975 26.9944 18.0655 26.6391 18.508C26.2839 18.9505 26.019 19.4589 25.8595 20.0041C25.7001 20.5493 25.6492 21.1207 25.7098 21.6857L27.1322 34.9415C27.3621 37.0845 28.0104 39.1611 29.0401 41.0526C30.0698 42.9442 31.4607 44.6137 33.1333 45.9658C34.806 47.318 36.7277 48.3263 38.7887 48.9332C40.8497 49.5401 43.0097 49.7337 45.1452 49.503L101.763 43.3856C103.892 43.1556 105.955 42.507 107.834 41.4769C109.714 40.4468 111.372 39.0553 112.716 37.382C114.059 35.7086 115.061 33.7861 115.664 31.7243C116.267 29.6624 116.459 27.5016 116.23 25.3651L114.802 12.0596C114.688 10.9997 114.189 10.0193 113.399 9.30624C112.61 8.59316 111.585 8.19759 110.523 8.19532Z" fill="white"/>
<path d="M93.5672 21.9904L48.5647 26.8528C48.436 26.8669 48.3058 26.8554 48.1816 26.8189C48.0574 26.7825 47.9415 26.7218 47.8407 26.6404C47.7398 26.559 47.6559 26.4584 47.5938 26.3445C47.5318 26.2305 47.4927 26.1054 47.4788 25.9762C47.4649 25.8471 47.4766 25.7165 47.5131 25.5918C47.5496 25.4672 47.6102 25.351 47.6915 25.2499C47.7727 25.1489 47.8731 25.0648 47.9867 25.0027C48.1004 24.9405 48.2251 24.9015 48.3538 24.8877L93.3564 20.0254C93.4851 20.0113 93.6152 20.0228 93.7395 20.0592C93.8637 20.0957 93.9796 20.1564 94.0804 20.2378C94.1813 20.3192 94.2652 20.4198 94.3273 20.5337C94.3893 20.6477 94.4284 20.7728 94.4423 20.902C94.4562 21.0311 94.4445 21.1617 94.408 21.2863C94.3715 21.411 94.3109 21.5271 94.2296 21.6282C94.1484 21.7293 94.048 21.8134 93.9344 21.8755C93.8207 21.9377 93.696 21.9767 93.5672 21.9904Z" fill="#6C63FF"/>
<path d="M94.2144 28.0216L49.2118 32.8839C48.9521 32.912 48.692 32.8354 48.4886 32.671C48.2852 32.5065 48.1552 32.2678 48.1272 32.0072C48.0993 31.7466 48.1756 31.4855 48.3395 31.2814C48.5033 31.0773 48.7413 30.9469 49.001 30.9188L94.0035 26.0565C94.2632 26.0284 94.5234 26.105 94.7268 26.2694C94.9302 26.4339 95.0602 26.6726 95.0881 26.9332C95.1161 27.1938 95.0397 27.4549 94.8759 27.659C94.712 27.8631 94.4741 27.9935 94.2144 28.0216Z" fill="#6C63FF"/>
<path d="M55.1032 38.3479L49.8588 38.9145C49.5991 38.9426 49.339 38.866 49.1356 38.7015C48.9322 38.5371 48.8022 38.2983 48.7742 38.0378C48.7463 37.7772 48.8226 37.5161 48.9865 37.312C49.1503 37.1079 49.3883 36.9775 49.6479 36.9494L54.8923 36.3828C55.021 36.3687 55.1512 36.3802 55.2754 36.4167C55.3997 36.4531 55.5155 36.5138 55.6164 36.5952C55.7172 36.6766 55.8011 36.7772 55.8632 36.8911C55.9253 37.0051 55.9644 37.1302 55.9782 37.2594C55.9921 37.3885 55.9804 37.5191 55.9439 37.6438C55.9075 37.7684 55.8468 37.8846 55.7656 37.9857C55.6843 38.0867 55.584 38.1708 55.4703 38.2329C55.3567 38.2951 55.2319 38.3341 55.1032 38.3479Z" fill="#6C63FF"/>
<path d="M29.4754 22.548C30.4544 22.548 31.2481 21.7515 31.2481 20.7691C31.2481 19.7867 30.4544 18.9902 29.4754 18.9902C28.4963 18.9902 27.7026 19.7867 27.7026 20.7691C27.7026 21.7515 28.4963 22.548 29.4754 22.548Z" fill="#3F3D56"/>
<path d="M108.805 13.6534C109.784 13.6534 110.578 12.857 110.578 11.8746C110.578 10.8921 109.784 10.0957 108.805 10.0957C107.826 10.0957 107.032 10.8921 107.032 11.8746C107.032 12.857 107.826 13.6534 108.805 13.6534Z" fill="#3F3D56"/>
<path d="M84.8386 50.1714C84.6757 50.0279 84.5467 49.8497 84.461 49.6499C84.3753 49.45 84.335 49.2336 84.3431 49.0161C84.4321 46.4324 84.0081 43.8566 83.0956 41.4389C83.0182 41.2357 82.987 41.0177 83.0041 40.8008C83.0212 40.5839 83.0862 40.3736 83.1944 40.1851C83.2982 40.0039 83.4402 39.8477 83.6105 39.7275C83.7808 39.6073 83.9753 39.5259 84.1802 39.4891C86.2407 38.2414 88.353 37.8911 90.4597 38.4482C90.7994 38.398 91.1458 38.471 91.4367 38.654C91.7277 38.8371 91.944 39.1181 92.047 39.4468C92.9 42.2254 93.3744 45.107 93.4574 48.0132C93.4654 48.3619 93.3477 48.7017 93.126 48.9703C92.9043 49.2389 92.5935 49.4182 92.2507 49.4753L86.0166 50.5088C85.8076 50.5439 85.5934 50.5318 85.3897 50.4735C85.1859 50.4151 84.9977 50.3119 84.8386 50.1714Z" fill="#6C63FF"/>
<path d="M85.3922 42.6439L90.6392 41.7741C90.6824 41.767 90.7237 41.7515 90.7608 41.7284C90.798 41.7053 90.8303 41.6751 90.8558 41.6394C90.8813 41.6038 90.8995 41.5635 90.9095 41.5208C90.9194 41.478 90.9208 41.4338 90.9137 41.3905C90.9066 41.3472 90.891 41.3058 90.8679 41.2685C90.8448 41.2313 90.8146 41.199 90.7791 41.1735C90.7435 41.148 90.7033 41.1298 90.6607 41.1199C90.6181 41.11 90.574 41.1087 90.5308 41.1159L85.2838 41.9858C85.197 42.0004 85.1195 42.0489 85.0683 42.1208C85.0171 42.1927 84.9964 42.282 85.0108 42.3691C85.0251 42.4562 85.0733 42.5341 85.1448 42.5856C85.2163 42.6372 85.3053 42.6581 85.3922 42.6439Z" fill="white"/>
<path d="M85.8258 45.2766L91.0729 44.4068C91.1598 44.3923 91.2375 44.3438 91.2889 44.2719C91.3402 44.2 91.361 44.1106 91.3466 44.0233C91.3322 43.936 91.2839 43.8581 91.2123 43.8065C91.1406 43.755 91.0515 43.7342 90.9645 43.7486L85.7174 44.6185C85.6743 44.6255 85.633 44.641 85.5958 44.6641C85.5586 44.6872 85.5264 44.7175 85.5009 44.7531C85.4754 44.7887 85.4571 44.8291 85.4472 44.8718C85.4372 44.9145 85.4358 44.9588 85.4429 45.002C85.45 45.0453 85.4656 45.0868 85.4887 45.124C85.5118 45.1612 85.542 45.1935 85.5776 45.219C85.6132 45.2445 85.6534 45.2628 85.696 45.2726C85.7386 45.2825 85.7827 45.2839 85.8258 45.2766Z" fill="white"/>
<path d="M86.2591 47.9094L91.5062 47.0396C91.5931 47.0251 91.6709 46.9766 91.7222 46.9047C91.7735 46.8328 91.7943 46.7434 91.7799 46.6561C91.7656 46.5688 91.7172 46.4909 91.6456 46.4394C91.5739 46.3878 91.4848 46.367 91.3978 46.3814L86.1508 47.2513C86.1077 47.2584 86.0665 47.274 86.0294 47.2971C85.9923 47.3203 85.9602 47.3505 85.9347 47.3861C85.9093 47.4217 85.8911 47.462 85.8812 47.5046C85.8713 47.5473 85.8699 47.5915 85.877 47.6347C85.8841 47.6779 85.8996 47.7193 85.9227 47.7565C85.9458 47.7937 85.9759 47.826 86.0114 47.8515C86.0469 47.877 86.087 47.8952 86.1295 47.9052C86.172 47.9151 86.2161 47.9166 86.2591 47.9094Z" fill="white"/>
</g>
<defs>
<clipPath id="clip0_1082_4634">
<rect width="162" height="140" fill="white"/>
</clipPath>
</defs>
</svg>
