<svg width="224" height="198" viewBox="0 0 224 198" fill="none" xmlns="http://www.w3.org/2000/svg">
<g clip-path="url(#clip0_1246_7924)">
<path d="M192.145 163.601C188.383 174.613 183.544 185.601 177.345 196.06C177.207 196.295 177.068 196.526 176.928 196.761L161.581 191.909C161.669 191.687 161.766 191.439 161.869 191.168C168.06 175.172 205.406 77.7151 203.73 58.5C203.91 60.0729 209.752 112.124 192.145 163.601Z" fill="#E6E6E6"/>
<path d="M180.306 196.996C180.097 197.209 179.883 197.42 179.667 197.627L168.154 193.987C168.31 193.799 168.491 193.578 168.7 193.327C172.109 189.166 182.247 176.709 192.145 163.601C202.783 149.516 213.148 134.681 214.6 128.586C214.308 129.972 205.224 172.166 180.306 196.996Z" fill="#E6E6E6"/>
<path d="M186.06 34.7249C186.056 34.7249 186.052 34.7262 186.048 34.7263V10.0665C186.048 7.3967 184.986 4.83625 183.097 2.94841C181.208 1.06057 178.645 0 175.973 0H98.7079C96.036 0 93.4735 1.06057 91.5842 2.94841C89.6948 4.83625 88.6334 7.3967 88.6334 10.0665V22.7084C88.4201 22.713 88.2171 22.8008 88.0677 22.9531C87.9184 23.1053 87.8347 23.31 87.8345 23.5232V29.7848C87.8347 29.998 87.9184 30.2027 88.0677 30.3549C88.217 30.5072 88.4201 30.595 88.6334 30.5995V37.1592H88.5925C88.4851 37.1591 88.3789 37.1803 88.2797 37.2213C88.1806 37.2623 88.0905 37.3225 88.0146 37.3983C87.9387 37.4741 87.8785 37.5641 87.8375 37.6632C87.7964 37.7623 87.7753 37.8685 87.7753 37.9757V50.0842C87.7753 50.1914 87.7964 50.2976 87.8375 50.3967C87.8785 50.4958 87.9387 50.5858 88.0146 50.6616C88.0905 50.7374 88.1806 50.7976 88.2797 50.8386C88.3789 50.8796 88.4851 50.9008 88.5925 50.9008H88.6334V55.7099H88.6207C88.5134 55.7099 88.4071 55.731 88.308 55.772C88.2088 55.8131 88.1187 55.8732 88.0428 55.949C87.967 56.0248 87.9068 56.1149 87.8657 56.2139C87.8246 56.313 87.8035 56.4192 87.8035 56.5264V68.7534C87.8035 68.8606 87.8246 68.9668 87.8657 69.0658C87.9068 69.1649 87.967 69.2549 88.0428 69.3308C88.1187 69.4066 88.2088 69.4667 88.308 69.5078C88.4071 69.5488 88.5134 69.5699 88.6207 69.5699H88.6334V187.758C88.6334 190.428 89.6948 192.988 91.5842 194.876C93.4735 196.764 96.036 197.825 98.7079 197.825H175.973C178.645 197.825 181.208 196.764 183.097 194.876C184.986 192.988 186.048 190.428 186.048 187.758V58.704C186.052 58.704 186.056 58.7052 186.06 58.7052C186.252 58.7052 186.441 58.6676 186.617 58.5945C186.794 58.5215 186.954 58.4144 187.089 58.2794C187.224 58.1444 187.332 57.9841 187.405 57.8077C187.478 57.6313 187.516 57.4422 187.516 57.2513V36.179C187.516 35.7934 187.362 35.4235 187.089 35.1508C186.816 34.8781 186.446 34.7249 186.06 34.7249Z" fill="#3F3D56"/>
<path d="M180.032 12.8835V184.937C180.032 186.987 179.216 188.952 177.765 190.402C176.314 191.851 174.347 192.665 172.295 192.665H102.386C100.334 192.665 98.3669 191.851 96.916 190.402C95.4651 188.952 94.6496 186.987 94.6488 184.937V12.8835C94.6488 10.833 95.464 8.8666 96.915 7.41673C98.366 5.96687 100.334 5.15234 102.386 5.15234H112.847V6.50902C112.848 8.19716 113.52 9.81593 114.714 11.0096C115.909 12.2033 117.529 12.8742 119.218 12.875H154.785C156.473 12.8713 158.09 12.1989 159.281 11.0055C160.473 9.81202 161.142 8.19494 161.142 6.50902V5.16645H172.295C174.345 5.16644 176.311 5.97903 177.761 7.42585C179.212 8.87266 180.029 10.8355 180.032 12.8835Z" fill="white"/>
<path d="M66.6693 96.5423C66.2558 96.3824 65.8124 96.3149 65.37 96.3448C64.9277 96.3746 64.4973 96.501 64.1092 96.715C63.721 96.929 63.3846 97.2254 63.1235 97.5834C62.8624 97.9415 62.6831 98.3523 62.5981 98.7871L37.6858 112.322L42.0659 117.248L65.2015 102.412C65.9419 102.507 66.6912 102.326 67.3073 101.905C67.9235 101.484 68.3638 100.852 68.5447 100.129C68.7256 99.4052 68.6346 98.6404 68.289 97.9795C67.9433 97.3185 67.367 96.8071 66.6693 96.5423Z" fill="#FFB8B8"/>
<path d="M60.3157 193.927L63.4199 191.921L57.1525 179.002L52.5708 181.963L60.3157 193.927Z" fill="#FFB8B8"/>
<path d="M71.2712 190.932L61.5149 197.237L59.0767 193.471L65.2045 189.51C66.1668 188.888 67.3371 188.674 68.4577 188.914C69.5783 189.154 70.5576 189.829 71.1801 190.791L71.2712 190.932Z" fill="#2F2E41"/>
<path d="M25.4847 194.393H29.1817L30.9412 180.145H25.4847V194.393Z" fill="#FFB8B8"/>
<path d="M36.3119 197.824H24.6925V193.338H31.9904C32.5579 193.338 33.1199 193.45 33.6442 193.667C34.1685 193.884 34.6449 194.202 35.0462 194.603C35.4475 195.004 35.7658 195.48 35.9829 196.004C36.2001 196.528 36.3119 197.089 36.3119 197.656V197.824Z" fill="#2F2E41"/>
<path d="M110.306 27.922H102.685C102.498 27.922 102.318 27.8477 102.186 27.7155C102.053 27.5832 101.979 27.4039 101.979 27.2169C101.979 27.0298 102.053 26.8505 102.186 26.7182C102.318 26.586 102.498 26.5117 102.685 26.5117H110.306C110.494 26.5117 110.673 26.586 110.805 26.7182C110.938 26.8505 111.012 27.0298 111.012 27.2169C111.012 27.4039 110.938 27.5832 110.805 27.7155C110.673 27.8477 110.494 27.922 110.306 27.922Z" fill="#3F3D56"/>
<path d="M110.306 29.8946H102.685C102.498 29.8946 102.318 29.8204 102.186 29.6881C102.053 29.5559 101.979 29.3765 101.979 29.1895C101.979 29.0025 102.053 28.8231 102.186 28.6909C102.318 28.5587 102.498 28.4844 102.685 28.4844H110.306C110.494 28.4844 110.673 28.5587 110.805 28.6909C110.938 28.8231 111.012 29.0025 111.012 29.1895C111.012 29.3765 110.938 29.5559 110.805 29.6881C110.673 29.8204 110.494 29.8946 110.306 29.8946Z" fill="#3F3D56"/>
<path d="M110.306 31.8693H102.685C102.498 31.8693 102.318 31.795 102.186 31.6627C102.053 31.5305 101.979 31.3511 101.979 31.1641C101.979 30.9771 102.053 30.7977 102.186 30.6655C102.318 30.5333 102.498 30.459 102.685 30.459H110.306C110.494 30.459 110.673 30.5333 110.805 30.6655C110.938 30.7977 111.012 30.9771 111.012 31.1641C111.012 31.3511 110.938 31.5305 110.805 31.6627C110.673 31.795 110.494 31.8693 110.306 31.8693Z" fill="#3F3D56"/>
<path d="M169.385 29.9095H169.128L169.029 29.8277C169.354 29.4413 169.531 28.953 169.532 28.4485C169.529 28.0335 169.404 27.6284 169.171 27.2846C168.939 26.9407 168.609 26.6735 168.225 26.5168C167.84 26.36 167.418 26.3207 167.011 26.4039C166.604 26.487 166.231 26.6889 165.938 26.984C165.646 27.279 165.448 27.654 165.369 28.0615C165.291 28.469 165.334 28.8907 165.495 29.2733C165.657 29.6559 165.927 29.9821 166.274 30.2109C166.621 30.4396 167.027 30.5605 167.443 30.5583C167.946 30.5547 168.433 30.3773 168.82 30.0562L168.916 30.138V30.3975L170.536 32.0193L171.022 31.5342L169.385 29.9095ZM167.443 29.9095C167.154 29.9107 166.87 29.8261 166.629 29.6665C166.388 29.5068 166.2 29.2794 166.088 29.0128C165.977 28.7463 165.947 28.4527 166.002 28.169C166.057 27.8854 166.195 27.6245 166.399 27.4194C166.603 27.2143 166.863 27.0741 167.146 27.0167C167.43 26.9592 167.724 26.987 167.991 27.0965C168.259 27.2061 168.488 27.3925 168.65 27.6321C168.811 27.8717 168.898 28.1539 168.899 28.4429L168.899 28.4485C168.9 28.6393 168.864 28.8284 168.792 29.005C168.72 29.1817 168.614 29.3424 168.479 29.4781C168.345 29.6138 168.186 29.7217 168.01 29.7957C167.834 29.8697 167.645 29.9084 167.454 29.9095C167.45 29.9095 167.446 29.9096 167.443 29.9095Z" fill="#3F3D56"/>
<path d="M125.833 53.8693H112.141C111.318 53.8693 110.528 53.5424 109.945 52.9605C109.363 52.3787 109.036 51.5895 109.036 50.7667C109.036 49.9438 109.363 49.1546 109.945 48.5728C110.528 47.9909 111.318 47.6641 112.141 47.6641H125.833C126.657 47.6641 127.446 47.9909 128.029 48.5728C128.611 49.1546 128.938 49.9438 128.938 50.7667C128.938 51.5895 128.611 52.3787 128.029 52.9605C127.446 53.5424 126.657 53.8693 125.833 53.8693Z" fill="#6C63FF"/>
<path d="M167.75 60.6386H110.73C110.28 60.6386 109.85 60.4603 109.532 60.1429C109.214 59.8255 109.036 59.3951 109.036 58.9462C109.036 58.4974 109.214 58.0669 109.532 57.7496C109.85 57.4322 110.28 57.2539 110.73 57.2539H167.75C168.199 57.2539 168.63 57.4322 168.948 57.7496C169.265 58.0669 169.444 58.4974 169.444 58.9462C169.444 59.3951 169.265 59.8255 168.948 60.1429C168.63 60.4603 168.199 60.6386 167.75 60.6386Z" fill="#E6E6E6"/>
<path d="M131.675 67.4081H110.73C110.28 67.4081 109.85 67.2298 109.532 66.9124C109.214 66.595 109.036 66.1646 109.036 65.7158C109.036 65.2669 109.214 64.8365 109.532 64.5191C109.85 64.2017 110.28 64.0234 110.73 64.0234H131.675C132.124 64.0234 132.555 64.2017 132.872 64.5191C133.19 64.8365 133.368 65.2669 133.368 65.7158C133.368 66.1646 133.19 66.595 132.872 66.9124C132.555 67.2298 132.124 67.4081 131.675 67.4081Z" fill="#E6E6E6"/>
<path d="M125.833 128.897H112.141C111.318 128.897 110.528 128.57 109.945 127.988C109.363 127.406 109.036 126.617 109.036 125.794C109.036 124.971 109.363 124.182 109.945 123.6C110.528 123.018 111.318 122.691 112.141 122.691H125.833C126.657 122.691 127.446 123.018 128.029 123.6C128.611 124.182 128.938 124.971 128.938 125.794C128.938 126.617 128.611 127.406 128.029 127.988C127.446 128.57 126.657 128.897 125.833 128.897Z" fill="#6C63FF"/>
<path d="M167.75 135.666H110.73C110.28 135.666 109.85 135.488 109.532 135.17C109.214 134.853 109.036 134.422 109.036 133.974C109.036 133.525 109.214 133.094 109.532 132.777C109.85 132.46 110.28 132.281 110.73 132.281H167.75C168.199 132.281 168.63 132.46 168.948 132.777C169.265 133.094 169.444 133.525 169.444 133.974C169.444 134.422 169.265 134.853 168.948 135.17C168.63 135.488 168.199 135.666 167.75 135.666Z" fill="#E6E6E6"/>
<path d="M131.675 142.435H110.73C110.28 142.435 109.85 142.257 109.532 141.94C109.214 141.622 109.036 141.192 109.036 140.743C109.036 140.294 109.214 139.864 109.532 139.546C109.85 139.229 110.28 139.051 110.73 139.051H131.675C132.124 139.051 132.555 139.229 132.872 139.546C133.19 139.864 133.368 140.294 133.368 140.743C133.368 141.192 133.19 141.622 132.872 141.94C132.555 142.257 132.124 142.435 131.675 142.435Z" fill="#E6E6E6"/>
<path d="M125.833 163.59H112.141C111.318 163.59 110.528 163.263 109.945 162.681C109.363 162.099 109.036 161.31 109.036 160.487C109.036 159.665 109.363 158.875 109.945 158.293C110.528 157.712 111.318 157.385 112.141 157.385H125.833C126.657 157.385 127.446 157.712 128.029 158.293C128.611 158.875 128.938 159.665 128.938 160.487C128.938 161.31 128.611 162.099 128.029 162.681C127.446 163.263 126.657 163.59 125.833 163.59Z" fill="#6C63FF"/>
<path d="M167.75 170.359H110.73C110.28 170.359 109.85 170.181 109.532 169.864C109.214 169.546 109.036 169.116 109.036 168.667C109.036 168.218 109.214 167.788 109.532 167.47C109.85 167.153 110.28 166.975 110.73 166.975H167.75C168.199 166.975 168.63 167.153 168.948 167.47C169.265 167.788 169.444 168.218 169.444 168.667C169.444 169.116 169.265 169.546 168.948 169.864C168.63 170.181 168.199 170.359 167.75 170.359Z" fill="#E6E6E6"/>
<path d="M131.675 177.129H110.73C110.28 177.129 109.85 176.95 109.532 176.633C109.214 176.316 109.036 175.885 109.036 175.436C109.036 174.988 109.214 174.557 109.532 174.24C109.85 173.922 110.28 173.744 110.73 173.744H131.675C132.124 173.744 132.555 173.922 132.872 174.24C133.19 174.557 133.368 174.988 133.368 175.436C133.368 175.885 133.19 176.316 132.872 176.633C132.555 176.95 132.124 177.129 131.675 177.129Z" fill="#E6E6E6"/>
<path d="M175.795 111.268H66.8354C66.1993 111.267 65.5894 111.015 65.1396 110.565C64.6898 110.116 64.4368 109.506 64.436 108.871V79.2549C64.4367 78.6193 64.6898 78.0099 65.1396 77.5604C65.5894 77.1109 66.1993 76.8581 66.8354 76.8574H175.795C176.431 76.8582 177.041 77.111 177.491 77.5604C177.94 78.0099 178.194 78.6193 178.194 79.2549V108.871C178.194 109.506 177.94 110.116 177.491 110.565C177.041 111.014 176.431 111.267 175.795 111.268Z" fill="#6C63FF"/>
<path d="M27.6641 146.503C28.7057 153.806 23.19 186.157 23.8025 186.154L31.7233 186.112C32.0055 185.57 35.6413 168.114 36.7817 165.313C38.3737 161.427 39.9799 157.492 40.6066 153.34C41.1965 149.442 40.9058 145.471 40.5219 141.547C40.5397 141.431 40.5295 141.311 40.4922 141.199C40.4548 141.087 40.3913 140.986 40.3069 140.903C40.2225 140.821 40.1197 140.759 40.0069 140.724C39.8941 140.689 39.7745 140.681 39.6581 140.701L29.0303 140.154C26.8398 140.041 26.3204 139.562 26.6535 141.711C26.885 143.316 27.4326 144.879 27.6641 146.503Z" fill="#2F2E41"/>
<path d="M29.753 128.747C27.5935 131.849 25.3297 135.42 26.0467 139.135C26.5915 141.955 28.7424 144.141 30.772 146.186C38.8847 154.326 54.8814 190.243 54.8814 190.243C62.6013 185.307 54.6975 190.384 62.5312 185.166C61.8368 185.112 46.0602 128.445 44.7533 128.369C39.4662 128.019 34.9046 127.503 29.753 128.747Z" fill="#2F2E41"/>
<path d="M38.2943 99.2159C37.1975 98.2385 29.4894 95.2244 29.4894 95.2244C29.3476 95.2056 29.2038 95.2099 29.0635 95.2371C28.6248 95.3478 28.4247 95.8924 28.5184 96.3329C28.6121 96.7733 27.8434 104.012 27.6453 107.303C27.2983 113.048 30.6839 126.061 30.6541 126.459C30.5381 127.878 29.9163 129.208 28.9017 130.208C29.1654 130.535 45.9132 131.191 47.0524 131.578C47.2824 131.286 45.7556 110.646 45.6853 109.48C45.5682 107.71 39.7423 100.556 38.2943 99.2159Z" fill="#E6E6E6"/>
<path d="M26.3491 144.003C26.746 143.806 27.0948 143.524 27.3708 143.177C27.6469 142.831 27.8436 142.428 27.9469 141.997C28.0503 141.566 28.0579 141.118 27.9692 140.684C27.8805 140.25 27.6977 139.841 27.4335 139.485L34.4998 100.409L27.9058 100.322L22.9986 138.963C22.4299 139.446 22.0583 140.121 21.9541 140.859C21.85 141.598 22.0206 142.349 22.4336 142.97C22.8466 143.591 23.4733 144.04 24.1949 144.23C24.9166 144.42 25.6831 144.34 26.3491 144.003Z" fill="#FFB8B8"/>
<path d="M26.2923 103.309C26.0173 103.328 25.7434 103.257 25.5132 103.105C25.1208 102.77 28.3219 97.6336 28.9542 97.5574C31.012 97.3205 33.1291 97.2415 35.1248 97.7972C37.1205 98.3528 38.9976 99.6164 39.8896 101.486C40.2622 102.265 37.5608 106.183 36.3329 105.607C34.8623 104.919 28.2287 103.356 26.2923 103.309Z" fill="#E6E6E6"/>
<path d="M33.5553 94.8035C37.6459 94.8035 40.962 91.4901 40.962 87.4027C40.962 83.3154 37.6459 80.002 33.5553 80.002C29.4648 80.002 26.1487 83.3154 26.1487 87.4027C26.1487 91.4901 29.4648 94.8035 33.5553 94.8035Z" fill="#FFB8B8"/>
<path d="M26.2805 99.6402C27.3098 99.7479 28.3496 99.5959 29.3049 99.1982C30.2601 98.8004 31.1003 98.1697 31.7486 97.3637C32.3969 96.5577 32.8325 95.6021 33.0157 94.5844C33.1989 93.5667 33.1237 92.5193 32.7971 91.5381C32.5023 90.6526 32.0096 89.841 31.7397 88.9477C31.4698 88.0544 31.4624 86.9981 32.0611 86.2819C33.2325 84.8806 35.4902 85.762 37.296 85.4835C39.2202 85.1866 40.6964 83.342 40.8504 81.4027C41.0044 79.4633 39.9928 77.5442 38.4868 76.3111C36.9808 75.0781 35.0385 74.4709 33.1009 74.2807C30.6124 74.0364 28.1029 74.4363 25.8141 75.4421C23.5252 76.4478 21.534 78.0255 20.0322 80.0231C18.5304 82.0207 17.5687 84.3711 17.2395 86.8478C16.9104 89.3245 17.225 91.8441 18.1529 94.1642C18.9625 96.1881 20.2848 98.0731 22.1629 99.1815C24.0411 100.29 26.5217 100.503 28.3936 99.3839" fill="#2F2E41"/>
<path d="M105.586 90.3966H86.6579C85.4559 90.3966 84.4779 89.0048 84.4779 87.294C84.4779 85.5832 85.4559 84.1914 86.658 84.1914H105.586C106.788 84.1914 107.766 85.5832 107.766 87.294C107.766 89.0048 106.788 90.3966 105.586 90.3966Z" fill="white"/>
<path d="M156.459 97.1659H86.1716C85.7224 97.1659 85.2916 96.9876 84.974 96.6702C84.6563 96.3529 84.4779 95.9224 84.4779 95.4736C84.4779 95.0247 84.6563 94.5943 84.974 94.2769C85.2916 93.9595 85.7224 93.7812 86.1716 93.7812H156.459C156.908 93.7812 157.339 93.9595 157.657 94.2769C157.974 94.5943 158.153 95.0247 158.153 95.4736C158.153 95.9224 157.974 96.3529 157.657 96.6702C157.339 96.9876 156.908 97.1659 156.459 97.1659Z" fill="#E6E6E6"/>
<path d="M120.384 103.935H86.1716C85.7224 103.935 85.2916 103.757 84.974 103.44C84.6563 103.122 84.4779 102.692 84.4779 102.243C84.4779 101.794 84.6563 101.364 84.974 101.046C85.2916 100.729 85.7224 100.551 86.1716 100.551H120.384C120.833 100.551 121.264 100.729 121.581 101.046C121.899 101.364 122.077 101.794 122.077 102.243C122.077 102.692 121.899 103.122 121.581 103.44C121.264 103.757 120.833 103.935 120.384 103.935Z" fill="#E6E6E6"/>
<path d="M223.5 197.436H0.5V198H223.5V197.436Z" fill="#3F3D56"/>
</g>
<defs>
<clipPath id="clip0_1246_7924">
<rect width="223" height="198" fill="white" transform="translate(0.5)"/>
</clipPath>
</defs>
</svg>
