<svg width="282" height="275" viewBox="0 0 282 275" fill="none" xmlns="http://www.w3.org/2000/svg">
<mask id="path-1-inside-1_2804_672" fill="white">
<path d="M265.891 137.178C265.891 119.719 262.453 102.432 255.772 86.302C249.09 70.1723 239.298 55.5165 226.953 43.1713C214.607 30.8262 199.952 21.0335 183.822 14.3523C167.692 7.67116 150.404 4.23242 132.946 4.23242C115.487 4.23242 98.1993 7.67117 82.0696 14.3523C65.9399 21.0335 51.284 30.8262 38.9389 43.1713C26.5937 55.5165 16.801 70.1723 10.1199 86.302C3.43874 102.432 -1.52629e-06 119.719 0 137.178L132.946 137.178H265.891Z"/>
</mask>
<path d="M265.891 137.178C265.891 119.719 262.453 102.432 255.772 86.302C249.09 70.1723 239.298 55.5165 226.953 43.1713C214.607 30.8262 199.952 21.0335 183.822 14.3523C167.692 7.67116 150.404 4.23242 132.946 4.23242C115.487 4.23242 98.1993 7.67117 82.0696 14.3523C65.9399 21.0335 51.284 30.8262 38.9389 43.1713C26.5937 55.5165 16.801 70.1723 10.1199 86.302C3.43874 102.432 -1.52629e-06 119.719 0 137.178L132.946 137.178H265.891Z" fill="#FF5656" stroke="white" stroke-width="30" mask="url(#path-1-inside-1_2804_672)"/>
<mask id="path-2-inside-2_2804_672" fill="white">
<path d="M267.431 136.409C267.431 118.849 263.972 101.461 257.252 85.238C250.532 69.0149 240.683 54.2743 228.266 41.8577C215.85 29.441 201.109 19.5917 184.886 12.8718C168.663 6.15201 151.275 2.69336 133.715 2.69336C116.156 2.69336 98.7678 6.15201 82.5447 12.8718C66.3216 19.5917 51.5809 29.4411 39.1643 41.8577C26.7477 54.2743 16.8983 69.015 10.1785 85.238C3.45865 101.461 -1.53512e-06 118.849 0 136.409L133.715 136.409H267.431Z"/>
</mask>
<path d="M267.431 136.409C267.431 118.849 263.972 101.461 257.252 85.238C250.532 69.0149 240.683 54.2743 228.266 41.8577C215.85 29.441 201.109 19.5917 184.886 12.8718C168.663 6.15201 151.275 2.69336 133.715 2.69336C116.156 2.69336 98.7678 6.15201 82.5447 12.8718C66.3216 19.5917 51.5809 29.4411 39.1643 41.8577C26.7477 54.2743 16.8983 69.015 10.1785 85.238C3.45865 101.461 -1.53512e-06 118.849 0 136.409L133.715 136.409H267.431Z" fill="#FF8888" stroke="white" stroke-width="30" mask="url(#path-2-inside-2_2804_672)"/>
<mask id="path-3-inside-3_2804_672" fill="white">
<path d="M267.43 133.33C267.43 110.152 261.335 87.3813 249.757 67.3023C238.178 47.2233 221.523 30.542 201.462 18.9318C181.401 7.32165 158.64 1.19087 135.462 1.15446C112.284 1.11805 89.5033 7.1773 69.4061 18.7244L135.254 133.33H267.43Z"/>
</mask>
<path d="M267.43 133.33C267.43 110.152 261.335 87.3813 249.757 67.3023C238.178 47.2233 221.523 30.542 201.462 18.9318C181.401 7.32165 158.64 1.19087 135.462 1.15446C112.284 1.11805 89.5033 7.1773 69.4061 18.7244L135.254 133.33H267.43Z" fill="#FEE114" stroke="white" stroke-width="30" mask="url(#path-3-inside-3_2804_672)"/>
<mask id="path-4-inside-4_2804_672" fill="white">
<path d="M281.283 137.371C281.283 101.494 267.089 67.0739 241.8 41.6255C216.511 16.177 182.181 1.76717 146.305 1.54174L145.451 137.371H281.283Z"/>
</mask>
<path d="M281.283 137.371C281.283 101.494 267.089 67.0739 241.8 41.6255C216.511 16.177 182.181 1.76717 146.305 1.54174L145.451 137.371H281.283Z" fill="#D1D80F" stroke="white" stroke-width="30" mask="url(#path-4-inside-4_2804_672)"/>
<mask id="path-5-inside-5_2804_672" fill="white">
<path d="M281.668 135.062C281.668 112.189 275.672 89.7166 264.277 69.8845C252.882 50.0525 236.487 33.5543 216.727 22.0352L150.839 135.062H281.668Z"/>
</mask>
<path d="M281.668 135.062C281.668 112.189 275.672 89.7166 264.277 69.8845C252.882 50.0525 236.487 33.5543 216.727 22.0352L150.839 135.062H281.668Z" fill="#84BD32" stroke="white" stroke-width="30" mask="url(#path-5-inside-5_2804_672)"/>
<mask id="path-6-inside-6_2804_672" fill="white">
<path d="M280.129 137.178C280.129 113.218 273.853 89.676 261.926 68.8951L142.95 137.178H280.129Z"/>
</mask>
<path d="M280.129 137.178C280.129 113.218 273.853 89.676 261.926 68.8951L142.95 137.178H280.129Z" fill="#30AD43" stroke="white" stroke-width="30" mask="url(#path-6-inside-6_2804_672)"/>
<mask id="path-7-inside-7_2804_672" fill="white">
<path d="M250.357 129.269C250.357 102.652 239.037 77.1247 218.885 58.3033C198.734 39.4819 171.404 28.9082 142.906 28.9082C114.408 28.9082 87.0767 39.4819 66.9256 58.3033C46.7744 77.1247 35.4536 102.652 35.4536 129.269L142.906 129.269H250.357Z"/>
</mask>
<path d="M250.357 129.269C250.357 102.652 239.037 77.1247 218.885 58.3033C198.734 39.4819 171.404 28.9082 142.906 28.9082C114.408 28.9082 87.0767 39.4819 66.9256 58.3033C46.7744 77.1247 35.4536 102.652 35.4536 129.269L142.906 129.269H250.357Z" fill="url(#paint0_linear_2804_672)" stroke="white" stroke-width="30" mask="url(#path-7-inside-7_2804_672)"/>
<path d="M81.0477 73.7144L132.785 110.247L127.539 116.726L81.0477 73.7144Z" fill="#323232"/>
<circle cx="138.029" cy="123.126" r="11.5595" fill="#323232" stroke="white" stroke-width="10"/>
<defs>
<linearGradient id="paint0_linear_2804_672" x1="142.906" y1="28.9082" x2="142.906" y2="229.631" gradientUnits="userSpaceOnUse">
<stop stop-color="#D1D80F"/>
<stop offset="0.489583" stop-color="white"/>
</linearGradient>
</defs>
</svg>
