<svg width="31" height="31" viewBox="0 0 31 31" fill="none" xmlns="http://www.w3.org/2000/svg">
<g clip-path="url(#clip0_2868_6550)">
<path fill-rule="evenodd" clip-rule="evenodd" d="M9.77 3.87468C9.42588 4.68944 9.24883 5.56903 9.25 6.45801C9.25 7.14315 9.51339 7.80024 9.98223 8.2847C10.4511 8.76917 11.087 9.04135 11.75 9.04135H19.25C19.913 9.04135 20.5489 8.76917 21.0178 8.2847C21.4866 7.80024 21.75 7.14315 21.75 6.45801C21.75 5.53964 21.565 4.66518 21.23 3.87468H23C23.663 3.87468 24.2989 4.14685 24.7678 4.63132C25.2366 5.11579 25.5 5.77287 25.5 6.45801V25.833C25.5 26.5182 25.2366 27.1752 24.7678 27.6597C24.2989 28.1442 23.663 28.4163 23 28.4163H8C7.33696 28.4163 6.70107 28.1442 6.23223 27.6597C5.76339 27.1752 5.5 26.5182 5.5 25.833V6.45801C5.5 5.77287 5.76339 5.11579 6.23223 4.63132C6.70107 4.14685 7.33696 3.87468 8 3.87468H9.77ZM15.5 18.083H11.75C11.4185 18.083 11.1005 18.2191 10.8661 18.4613C10.6317 18.7036 10.5 19.0321 10.5 19.3747C10.5 19.7172 10.6317 20.0458 10.8661 20.288C11.1005 20.5303 11.4185 20.6663 11.75 20.6663H15.5C15.8315 20.6663 16.1495 20.5303 16.3839 20.288C16.6183 20.0458 16.75 19.7172 16.75 19.3747C16.75 19.0321 16.6183 18.7036 16.3839 18.4613C16.1495 18.2191 15.8315 18.083 15.5 18.083ZM19.25 12.9163H11.75C11.4314 12.9167 11.125 13.0428 10.8933 13.2688C10.6616 13.4948 10.5222 13.8037 10.5035 14.1323C10.4849 14.461 10.5883 14.7846 10.7928 15.037C10.9973 15.2895 11.2874 15.4518 11.6038 15.4906L11.75 15.4997H19.25C19.5815 15.4997 19.8995 15.3636 20.1339 15.1214C20.3683 14.8791 20.5 14.5506 20.5 14.208C20.5 13.8654 20.3683 13.5369 20.1339 13.2947C19.8995 13.0524 19.5815 12.9163 19.25 12.9163ZM15.5 2.58301C16.0277 2.58221 16.5496 2.6969 17.0314 2.91953C17.5131 3.14216 17.9438 3.46768 18.295 3.87468C18.83 4.4921 19.175 5.28647 19.2388 6.16351L19.25 6.45801H11.75C11.75 5.52155 12.0713 4.6626 12.6063 3.99351L12.705 3.87468C13.3925 3.0816 14.39 2.58301 15.5 2.58301Z" fill="#001951"/>
</g>
<defs>
<clipPath id="clip0_2868_6550">
<rect width="30" height="31" fill="white" transform="translate(0.5)"/>
</clipPath>
</defs>
</svg>
